HIERARCHY
ROOT root
{
	OFFSET	0	13.1	24.9
	CHANNELS 6  Xposition Yposition Zposition Xrotation Yrotation Zrotation
	JOINT spine_1
	{
		OFFSET	0	9.99999	0
		CHANNELS 3  Xrotation Yrotation Zrotation
		JOINT spine_2
		{
			OFFSET	0	112	-10
			CHANNELS 3  Xrotation Yrotation Zrotation
			JOINT spine_3
			{
				OFFSET	0	206.5	19.3
				CHANNELS 3  Xrotation Yrotation Zrotation
				JOINT spine_4
				{
					OFFSET	0	110.4	14.6
					CHANNELS 3  Xrotation Yrotation Zrotation
					JOINT neck_1
					{
						OFFSET	0	71.8	-50.3
						CHANNELS 3  Xrotation Yrotation Zrotation
						JOINT neck_2
						{
							OFFSET	0	86.2	-25.8
							CHANNELS 3  Xrotation Yrotation Zrotation
							JOINT head_ee
							{
								OFFSET	0	179.8	-8.7
								CHANNELS 3  Xrotation Yrotation Zrotation
								End Site
								{
									OFFSET	1	0	0
								}
							}
						}
					}
					JOINT left_clavicle
					{
						OFFSET	-43.2	22.4	-70.8
						CHANNELS 3  Xrotation Yrotation Zrotation
						JOINT left_shoulder
						{
							OFFSET	-93.9	-5.79999	48.7
							CHANNELS 3  Xrotation Yrotation Zrotation
							JOINT left_elbow
							{
								OFFSET	-291.4	-30.8	15.2
								CHANNELS 3  Xrotation Yrotation Zrotation
								JOINT left_lowarm_twist
								{
									OFFSET	-110.7	-3.89999	13.6
									CHANNELS 3  Xrotation Yrotation Zrotation
									JOINT left_hand
									{
										OFFSET	-110.7	-3.89999	13.6
										CHANNELS 3  Xrotation Yrotation Zrotation
										JOINT left_ee
										{
											OFFSET	-80.8	-5.10001	12.1
											CHANNELS 3  Xrotation Yrotation Zrotation
											End Site
											{
												OFFSET	1	0	0
											}
										}
									}
								}
							}
						}
					}
					JOINT right_clavicle
					{
						OFFSET	43.2	22.4	-70.8
						CHANNELS 3  Xrotation Yrotation Zrotation
						JOINT right_shoulder
						{
							OFFSET	93.9	-5.79999	48.7
							CHANNELS 3  Xrotation Yrotation Zrotation
							JOINT right_elbow
							{
								OFFSET	291.4	-30.8	15.2
								CHANNELS 3  Xrotation Yrotation Zrotation
								JOINT right_lowarm_twist
								{
									OFFSET	110.7	-3.89999	13.6
									CHANNELS 3  Xrotation Yrotation Zrotation
									JOINT right_hand
									{
										OFFSET	110.7	-3.89999	13.6
										CHANNELS 3  Xrotation Yrotation Zrotation
										JOINT right_ee
										{
											OFFSET	80.8	-5.10001	12.1
											CHANNELS 3  Xrotation Yrotation Zrotation
											End Site
											{
												OFFSET	1	0	0
											}
										}
									}
								}
							}
						}
					}
				}
			}
		}
	}
	JOINT left_hip
	{
		OFFSET	-82.8	-127.5	0.300001
		CHANNELS 3  Xrotation Yrotation Zrotation
		JOINT left_knee
		{
			OFFSET	-28.2	-396.7	2.2
			CHANNELS 3  Xrotation Yrotation Zrotation
			JOINT left_ankle
			{
				OFFSET	-11.7	-411.3	35.4
				CHANNELS 3  Xrotation Yrotation Zrotation
				JOINT left_toes
				{
					OFFSET	0	-60	-88.6
					CHANNELS 3  Xrotation Yrotation Zrotation
					JOINT left_foot_ee
					{
						OFFSET	-22.5	-16.5	-42.2
						CHANNELS 3  Xrotation Yrotation Zrotation
						End Site
						{
							OFFSET	1	0	0
						}
					}
				}
			}
		}
	}
	JOINT right_hip
	{
		OFFSET	82.8	-127.5	0.300001
		CHANNELS 3  Xrotation Yrotation Zrotation
		JOINT right_knee
		{
			OFFSET	28.2	-396.7	2.2
			CHANNELS 3  Xrotation Yrotation Zrotation
			JOINT right_ankle
			{
				OFFSET	11.7	-411.3	35.4
				CHANNELS 3  Xrotation Yrotation Zrotation
				JOINT right_toes
				{
					OFFSET	0	-60	-88.6
					CHANNELS 3  Xrotation Yrotation Zrotation
					JOINT right_foot_ee
					{
						OFFSET	22.5	-16.5	-42.2
						CHANNELS 3  Xrotation Yrotation Zrotation
						End Site
						{
							OFFSET	1	0	0
						}
					}
				}
			}
		}
	}
}
MOTION
Frames: 9
Frame Time: 0.02
1296.03 670.363 -1595.89 0.972211 46.3676 4.79118 1.80453 -0.19763 -0.142252 1.80452 -0.188178 -0.15454 1.80503 -0.157425 -0.185771 1.80503 -0.184788 -0.158578 -4.95651 10.668 -4.01057 -4.75905 22.6149 -2.2716 -0.0 0.0 -0.0 -7.61072 23.6639 -7.77382 -14.7314 -22.0261 81.522 1.07522 -28.0405 0.268495 8.62702 0.223126 -1.07839 -1.69651 24.103 -0.100404 -0.0 0.0 -0.0 9.35258 14.4474 -18.2849 -6.04758 16.7047 -63.5856 1.39012 34.5504 -0.432333 6.36523 -0.180386 0.792647 1.23403 -7.00658 -11.0237 0.0 0.0 0.0 21.0862 6.50533 -20.0604 4.68825 -0.221255 -0.685071 7.96453 14.8705 -1.14802 -3.31325 0.0 0.0 -0.0 0.0 -0.0 -15.2103 31.7201 -2.07953 -15.0132 -0.321696 -2.27491 41.7037 -14.8686 5.0804 3.38736 -0.0 -0.0 0.0 0.0 0.0 
1264.35 672.654 -1601.65 2.13399 46.1556 4.26647 1.59562 -0.156634 -0.390691 1.59569 -0.131456 -0.399866 1.59663 -0.0561251 -0.417161 1.59641 -0.121303 -0.403062 -4.79046 11.1816 -3.1315 -4.60561 22.8939 -1.31336 -0.0 0.0 -0.0 -8.18603 24.1918 -8.4043 -14.05 -21.6144 82.2683 1.21451 -31.0313 0.337182 11.504 0.261138 -1.44387 -1.85944 23.5314 -1.29956 -0.0 0.0 -0.0 8.78174 13.8658 -17.0583 -8.39146 16.4393 -64.4379 1.37676 34.2925 -0.424783 6.28273 -0.178614 0.782257 0.0259686 -9.06142 -3.92878 0.0 0.0 0.0 20.7932 8.09087 -19.7692 1.40388 -0.0603507 -0.206969 8.32684 16.2345 -1.20267 -0.0106034 0.0 0.0 -0.0 0.0 -0.0 -15.6324 32.7852 -2.14686 -16.5829 -0.320672 -2.51574 42.1188 -18.8979 5.19356 6.84238 -0.0 -0.0 0.0 0.0 0.0 
1237.84 674.507 -1609.53 3.35049 45.5456 3.09002 1.47888 -0.116992 -0.594472 1.47907 -0.0789274 -0.600711 1.47993 0.0334779 -0.604949 1.47942 -0.0624808 -0.602644 -6.40506 11.4946 -0.708567 -6.36641 21.822 1.52833 -0.0 0.0 -0.0 -7.98922 24.2219 -8.11502 -14.9839 -23.8997 81.0412 1.32322 -33.2427 0.395023 13.7869 0.278214 -1.73494 -1.84752 22.8805 -1.542 -0.0 0.0 -0.0 8.94415 12.5379 -17.4658 -11.4148 15.9892 -64.406 1.34196 33.6131 -0.405347 5.90373 -0.170281 0.734561 -0.491011 -11.0261 -1.42758 0.0 0.0 0.0 20.0219 8.5663 -19.8776 -5.35757 0.183216 0.801518 13.849 13.3027 -1.95044 3.05052 -0.0 -0.0 -0.0 0.0 -0.0 -17.6227 32.2778 -1.31067 -16.8875 -0.319709 -2.56247 41.7531 -23.0724 5.27123 8.03155 -0.0 -0.0 0.0 0.0 0.0 
1221.89 681.311 -1616.18 3.30666 45.3244 3.41529 1.55784 -0.121423 -0.70738 1.55811 -0.0761658 -0.713673 1.55909 0.0560862 -0.715531 1.55838 -0.0576195 -0.715409 -4.86777 12.6066 -0.0188129 -4.7396 23.202 2.13653 -0.0 0.0 -0.0 -8.03455 23.7443 -8.35026 -14.7454 -25.719 79.6839 1.53353 -37.2202 0.516418 15.7106 0.283593 -1.98058 -1.74157 22.6736 -1.02883 -0.0 0.0 -0.0 8.91561 13.3344 -17.3732 -13.7895 15.4244 -65.1123 1.24288 31.6187 -0.351931 6.25169 -0.177944 0.778349 -1.09888 -12.6913 1.70015 0.0 0.0 0.0 18.193 9.93502 -20.1618 -4.25563 0.151675 0.635349 11.3906 15.1989 -1.62466 4.22813 -0.0 -0.0 -0.0 0.0 -0.0 -16.4298 33.2939 -2.09049 -19.6748 -0.299366 -2.9896 41.8151 -26.0783 5.37675 9.07754 -0.0 -0.0 0.0 0.0 0.0 
1204.69 688.126 -1627.79 4.45366 44.0583 3.00425 1.4401 -0.201619 -0.609871 1.4403 -0.162404 -0.621464 1.44211 -0.0443055 -0.640803 1.44156 -0.14495 -0.625764 -5.21463 12.152 1.94311 -5.12997 20.9471 4.11565 -0.0 0.0 -0.0 -8.54501 24.1785 -8.9193 -11.8207 -19.9731 79.5701 1.49076 -36.4427 0.490778 16.7144 0.283125 -2.10878 -1.46837 21.4729 0.00246057 -0.0 0.0 -0.0 9.12653 10.8461 -17.9143 -12.4976 15.721 -66.6629 0.924534 24.6068 -0.201643 5.40734 -0.15889 0.672173 -1.6537 -15.712 3.78014 0.0 0.0 0.0 14.2811 10.1215 -21.2749 -3.24685 0.12 0.483773 11.9432 9.89156 -1.68706 4.27396 -0.0 -0.0 -0.0 0.0 -0.0 -12.9953 35.5665 -2.9047 -23.8965 -0.229066 -3.63346 40.7959 -26.3362 5.28995 9.89773 -0.0 -0.0 0.0 0.0 0.0 
1191.54 690.95 -1631.83 4.78965 43.1598 3.76425 1.33021 -0.300017 -1.09723 1.33085 -0.229594 -1.1141 1.33547 -0.0168394 -1.13738 1.33372 -0.196245 -1.12045 -5.22098 12.7613 3.44068 -5.12317 20.9593 5.73933 -0.0 0.0 -0.0 -8.80123 23.9419 -9.37606 -10.4668 -23.4772 78.1501 1.70187 -40.1293 0.621644 17.6393 0.280705 -2.22689 -1.43807 22.017 0.426357 -0.0 0.0 -0.0 10.2475 14.4423 -20.2662 -15.067 15.4308 -65.3146 0.706991 19.3014 -0.120224 7.12893 -0.196079 0.888941 -1.55975 -14.8424 3.60496 0.0 0.0 0.0 15.5228 10.6732 -23.0207 -7.63364 0.238211 1.14645 13.7282 8.2733 -1.92497 4.97986 -0.0 -0.0 -0.0 0.0 -0.0 -12.3287 33.509 -2.11662 -23.2014 -0.243902 -3.52782 41.5318 -25.4123 5.32673 10.5845 -0.0 -0.0 0.0 0.0 0.0 
1179.33 699.782 -1631.88 4.76778 41.5847 4.32362 1.0385 -0.305022 -0.970088 1.03899 -0.242678 -0.987529 1.04335 -0.0482243 -1.01576 1.04197 -0.208032 -0.995403 -5.52773 12.3527 4.92503 -5.42639 19.1523 7.20778 -0.0 0.0 -0.0 -7.88121 21.6587 -8.86217 -9.69056 -25.3458 76.6975 1.66599 -39.529 0.598665 18.4099 0.277233 -2.32525 -1.40796 20.0787 -0.275699 -0.0 0.0 -0.0 10.4191 14.8934 -20.631 -15.4964 16.2037 -65.7562 0.567925 15.7132 -0.0783684 6.13349 -0.175371 0.763468 -2.2599 -19.1515 5.80173 0.0 0.0 0.0 14.1885 11.1152 -23.0042 -7.40499 0.233307 1.11171 11.8587 9.45012 -1.67521 5.60156 -0.0 -0.0 -0.0 0.0 -0.0 -7.93698 33.2697 -4.80458 -27.2684 -0.138962 -4.143 41.6552 -25.6684 5.34718 10.9276 -0.0 -0.0 0.0 0.0 0.0 
1169.93 704.148 -1633.83 4.51432 40.9876 4.17007 1.23801 -0.272936 -1.00718 1.23855 -0.208297 -1.0225 1.24241 -0.0113786 -1.04344 1.24094 -0.176019 -1.02855 -5.37179 11.1421 5.31314 -5.26935 16.5896 7.36272 -0.0 0.0 -0.0 -7.07481 21.0893 -7.8461 -8.22525 -25.5771 74.2493 1.45978 -35.8698 0.472501 18.765 0.275188 -2.37057 -1.49246 19.5418 -1.02277 -0.0 0.0 -0.0 10.4619 14.6357 -20.7368 -16.2372 16.5416 -65.8464 0.462325 12.8997 -0.0522658 5.84108 -0.168873 0.726681 -2.35596 -21.7602 5.04853 0.0 0.0 0.0 11.1511 11.9983 -21.1352 -3.49359 0.127995 0.520797 12.653 7.11216 -1.78149 6.4601 -0.0 -0.0 -0.0 0.0 -0.0 -1.88553 34.9094 -8.90052 -35.9443 0.229111 -5.42219 42.4314 -25.5443 5.41435 11.487 -0.0 -0.0 0.0 0.0 0.0 
1155.5 712.215 -1637.55 6.39734 40.4993 2.93353 0.62472 -0.29256 -0.939405 0.625181 -0.232193 -0.956116 0.629286 -0.0368702 -0.983213 0.627988 -0.19168 -0.965054 -5.73663 11.6559 6.51304 -5.60772 16.7193 8.70147 -0.0 0.0 -0.0 -6.79467 20.9719 -7.46392 -6.31582 -23.2033 73.6411 1.50305 -36.6677 0.498098 18.2237 0.278194 -2.30149 -1.207 16.0397 -0.880704 -0.0 0.0 -0.0 10.1758 15.4338 -20.0651 -16.7286 16.7074 -66.9315 0.405645 11.3622 -0.0403537 6.08658 -0.174341 0.757565 -2.69698 -25.8516 4.86702 0.0 0.0 0.0 8.07877 12.3539 -20.5671 -4.22316 0.150697 0.630462 13.4853 0.645081 -1.90675 7.08479 -0.0 -0.0 -0.0 0.0 -0.0 3.10944 32.5956 -12.2817 -44.1808 0.753938 -6.57338 42.3548 -24.9258 5.3857 11.8231 -0.0 -0.0 0.0 0.0 0.0 
